<svg t="1636256524251" class="icon" viewBox="0 0 1024 1024" version="1.1" xmlns="http://www.w3.org/2000/svg" p-id="3457" width="16" height="16"><path d="M0 0h1024v1024H0z" fill="#ffffff" fill-opacity="0" p-id="3458"></path><path d="M878.933333 658.410667a41.685333 41.685333 0 0 1-58.944 0.32l-307.968-304.64L204.010667 658.773333a41.685333 41.685333 0 0 1-58.56 0.064 40.618667 40.618667 0 0 1-0.064-57.813333l335.424-331.733333a41.578667 41.578667 0 0 1 31.04-12.010667 41.493333 41.493333 0 0 1 31.36 11.989333l335.402666 331.733334c15.936 15.786667 16.085333 41.493333 0.32 57.429333z" fill="#ffffff" p-id="3459"></path><path d="M554.666667 362.666667v533.333333a42.666667 42.666667 0 1 1-85.333334 0V362.666667a42.666667 42.666667 0 1 1 85.333334 0zM128 85.333333h768a42.666667 42.666667 0 1 1 0 85.333334H128a42.666667 42.666667 0 1 1 0-85.333334z" fill="#ffffff" p-id="3460"></path></svg>